HIERARCHY
ROOT mixamorig:Hips
{
	OFFSET 0.000000 201.639420 0.000000
	CHANNELS 6 Xposition Yposition Zposition Xrotation Yrotation Zrotation
	JOINT mixamorig:Spine
	{
		OFFSET 0.006200 19.524994 -2.481800
		CHANNELS 3 Xrotation Yrotation Zrotation
		JOINT mixamorig:Spine1
		{
			OFFSET -0.000900 22.835007 -2.825400
			CHANNELS 3 Xrotation Yrotation Zrotation
			JOINT mixamorig:Spine2
			{
				OFFSET -0.020600 26.552490 -3.193300
				CHANNELS 3 Xrotation Yrotation Zrotation
				JOINT mixamorig:Neck
				{
					OFFSET -0.060000 30.701813 1.352200
					CHANNELS 3 Xrotation Yrotation Zrotation
					JOINT mixamorig:Head
					{
						OFFSET -0.087200 22.547607 3.670900
						CHANNELS 3 Xrotation Yrotation Zrotation
						JOINT mixamorig:HeadTop_End
						{
							OFFSET -0.830600 40.355194 7.893500
							CHANNELS 3 Xrotation Yrotation Zrotation
							End Site
							{
								OFFSET 0.000000 30.592346 0.000000
							}
						}
						JOINT mixamorig:RightEye
						{
							OFFSET -6.302100 18.118591 16.197100
							CHANNELS 3 Xrotation Yrotation Zrotation
							End Site
							{
								OFFSET 0.000000 30.592346 0.000000
							}
						}
						JOINT mixamorig:LeftEye
						{
							OFFSET 6.741500 18.382690 16.401899
							CHANNELS 3 Xrotation Yrotation Zrotation
							End Site
							{
								OFFSET 0.000000 30.592346 0.000000
							}
						}
					}
				}
				JOINT mixamorig:LeftShoulder
				{
					OFFSET 11.924900 18.230499 1.425400
					CHANNELS 3 Xrotation Yrotation Zrotation
					JOINT mixamorig:LeftArm
					{
						OFFSET 25.435989 -0.697632 -5.229300
						CHANNELS 3 Xrotation Yrotation Zrotation
						JOINT mixamorig:LeftForeArm
						{
							OFFSET 54.684776 0.000000 0.000000
							CHANNELS 3 Xrotation Yrotation Zrotation
							JOINT mixamorig:LeftHand
							{
								OFFSET 55.098175 0.000000 0.000000
								CHANNELS 3 Xrotation Yrotation Zrotation
								JOINT mixamorig:LeftHandMiddle1
								{
									OFFSET 23.369751 0.000000 0.000000
									CHANNELS 3 Xrotation Yrotation Zrotation
									JOINT mixamorig:LeftHandMiddle2
									{
										OFFSET 6.378677 0.000000 0.000000
										CHANNELS 3 Xrotation Yrotation Zrotation
										JOINT mixamorig:LeftHandMiddle3
										{
											OFFSET 6.148331 0.000000 0.000000
											CHANNELS 3 Xrotation Yrotation Zrotation
											JOINT mixamorig:LeftHandMiddle4
											{
												OFFSET 6.582504 0.000000 0.000000
												CHANNELS 3 Xrotation Yrotation Zrotation
												End Site
												{
													OFFSET -1.168900 6.395691 1.028606
												}
											}
										}
									}
								}
								JOINT mixamorig:LeftHandThumb1
								{
									OFFSET 7.235672 -3.848206 5.434273
									CHANNELS 3 Xrotation Yrotation Zrotation
									JOINT mixamorig:LeftHandThumb2
									{
										OFFSET 6.568451 -3.792297 3.792300
										CHANNELS 3 Xrotation Yrotation Zrotation
										JOINT mixamorig:LeftHandThumb3
										{
											OFFSET 6.063080 -3.500519 3.500518
											CHANNELS 3 Xrotation Yrotation Zrotation
											JOINT mixamorig:LeftHandThumb4
											{
												OFFSET 4.793182 -2.767334 2.767349
												CHANNELS 3 Xrotation Yrotation Zrotation
												End Site
												{
													OFFSET 0.101639 6.054260 1.275483
												}
											}
										}
									}
								}
								JOINT mixamorig:LeftHandIndex1
								{
									OFFSET 23.101074 -0.309540 4.992809
									CHANNELS 3 Xrotation Yrotation Zrotation
									JOINT mixamorig:LeftHandIndex2
									{
										OFFSET 6.226883 0.000000 0.000000
										CHANNELS 3 Xrotation Yrotation Zrotation
										JOINT mixamorig:LeftHandIndex3
										{
											OFFSET 6.094330 0.000000 0.000000
											CHANNELS 3 Xrotation Yrotation Zrotation
											JOINT mixamorig:LeftHandIndex4
											{
												OFFSET 5.482605 0.000000 0.000000
												CHANNELS 3 Xrotation Yrotation Zrotation
												End Site
												{
													OFFSET -1.427902 5.233032 0.797164
												}
											}
										}
									}
								}
								JOINT mixamorig:LeftHandRing1
								{
									OFFSET 22.299240 0.021149 -3.964172
									CHANNELS 3 Xrotation Yrotation Zrotation
									JOINT mixamorig:LeftHandRing2
									{
										OFFSET 6.321869 0.000000 0.000000
										CHANNELS 3 Xrotation Yrotation Zrotation
										JOINT mixamorig:LeftHandRing3
										{
											OFFSET 5.899796 0.000000 0.000000
											CHANNELS 3 Xrotation Yrotation Zrotation
											JOINT mixamorig:LeftHandRing4
											{
												OFFSET 6.517899 0.000000 0.000000
												CHANNELS 3 Xrotation Yrotation Zrotation
												End Site
												{
													OFFSET -1.637299 6.232208 0.980890
												}
											}
										}
									}
								}
								JOINT mixamorig:LeftHandPinky1
								{
									OFFSET 20.463791 -0.302338 -8.562233
									CHANNELS 3 Xrotation Yrotation Zrotation
									JOINT mixamorig:LeftHandPinky2
									{
										OFFSET 6.908646 0.000000 0.000000
										CHANNELS 3 Xrotation Yrotation Zrotation
										JOINT mixamorig:LeftHandPinky3
										{
											OFFSET 4.622849 0.000000 0.000000
											CHANNELS 3 Xrotation Yrotation Zrotation
											JOINT mixamorig:LeftHandPinky4
											{
												OFFSET 5.216080 0.000000 0.000000
												CHANNELS 3 Xrotation Yrotation Zrotation
												End Site
												{
													OFFSET -0.606308 5.116241 0.814926
												}
											}
										}
									}
								}
							}
						}
					}
				}
				JOINT mixamorig:RightShoulder
				{
					OFFSET -12.001300 18.284088 1.348900
					CHANNELS 3 Xrotation Yrotation Zrotation
					JOINT mixamorig:RightArm
					{
						OFFSET -25.308500 -0.751312 -5.164599
						CHANNELS 3 Xrotation Yrotation Zrotation
						JOINT mixamorig:RightForeArm
						{
							OFFSET -54.684429 0.000000 0.000000
							CHANNELS 3 Xrotation Yrotation Zrotation
							JOINT mixamorig:RightHand
							{
								OFFSET -55.150291 0.000000 0.000000
								CHANNELS 3 Xrotation Yrotation Zrotation
								JOINT mixamorig:RightHandMiddle1
								{
									OFFSET -23.317566 0.000000 0.000000
									CHANNELS 3 Xrotation Yrotation Zrotation
									JOINT mixamorig:RightHandMiddle2
									{
										OFFSET -6.378403 0.000000 0.000000
										CHANNELS 3 Xrotation Yrotation Zrotation
										JOINT mixamorig:RightHandMiddle3
										{
											OFFSET -6.148193 0.000000 0.000000
											CHANNELS 3 Xrotation Yrotation Zrotation
											JOINT mixamorig:RightHandMiddle4
											{
												OFFSET -6.583389 0.000000 0.000000
												CHANNELS 3 Xrotation Yrotation Zrotation
												End Site
												{
													OFFSET 1.171692 6.395905 1.029786
												}
											}
										}
									}
								}
								JOINT mixamorig:RightHandThumb1
								{
									OFFSET -7.190521 -3.860474 5.435846
									CHANNELS 3 Xrotation Yrotation Zrotation
									JOINT mixamorig:RightHandThumb2
									{
										OFFSET -6.567429 -3.791718 3.791708
										CHANNELS 3 Xrotation Yrotation Zrotation
										JOINT mixamorig:RightHandThumb3
										{
											OFFSET -6.062469 -3.500153 3.500166
											CHANNELS 3 Xrotation Yrotation Zrotation
											JOINT mixamorig:RightHandThumb4
											{
												OFFSET -4.792618 -2.767029 2.767022
												CHANNELS 3 Xrotation Yrotation Zrotation
												End Site
												{
													OFFSET -0.100327 6.053253 1.276754
												}
											}
										}
									}
								}
								JOINT mixamorig:RightHandIndex1
								{
									OFFSET -23.048981 -0.310791 4.992554
									CHANNELS 3 Xrotation Yrotation Zrotation
									JOINT mixamorig:RightHandIndex2
									{
										OFFSET -6.227539 0.000000 0.000000
										CHANNELS 3 Xrotation Yrotation Zrotation
										JOINT mixamorig:RightHandIndex3
										{
											OFFSET -6.095047 0.000000 0.000000
											CHANNELS 3 Xrotation Yrotation Zrotation
											JOINT mixamorig:RightHandIndex4
											{
												OFFSET -5.484772 0.000000 0.000000
												CHANNELS 3 Xrotation Yrotation Zrotation
												End Site
												{
													OFFSET 1.420593 5.237305 0.797056
												}
											}
										}
									}
								}
								JOINT mixamorig:RightHandRing1
								{
									OFFSET -22.246323 0.020569 -3.963762
									CHANNELS 3 Xrotation Yrotation Zrotation
									JOINT mixamorig:RightHandRing2
									{
										OFFSET -6.322128 0.000000 0.000000
										CHANNELS 3 Xrotation Yrotation Zrotation
										JOINT mixamorig:RightHandRing3
										{
											OFFSET -5.900024 0.000000 0.000000
											CHANNELS 3 Xrotation Yrotation Zrotation
											JOINT mixamorig:RightHandRing4
											{
												OFFSET -6.518356 0.000000 0.000000
												CHANNELS 3 Xrotation Yrotation Zrotation
												End Site
												{
													OFFSET 1.636398 6.232697 0.982186
												}
											}
										}
									}
								}
								JOINT mixamorig:RightHandPinky1
								{
									OFFSET -20.411011 -0.303314 -8.561701
									CHANNELS 3 Xrotation Yrotation Zrotation
									JOINT mixamorig:RightHandPinky2
									{
										OFFSET -6.907349 0.000000 0.000000
										CHANNELS 3 Xrotation Yrotation Zrotation
										JOINT mixamorig:RightHandPinky3
										{
											OFFSET -4.623840 0.000000 0.000000
											CHANNELS 3 Xrotation Yrotation Zrotation
											JOINT mixamorig:RightHandPinky4
											{
												OFFSET -5.218353 0.000000 0.000000
												CHANNELS 3 Xrotation Yrotation Zrotation
												End Site
												{
													OFFSET 0.602097 5.118835 0.816273
												}
											}
										}
									}
								}
							}
						}
					}
				}
			}
		}
	}
	JOINT mixamorig:LeftUpLeg
	{
		OFFSET 18.168400 -13.561905 -0.039000
		CHANNELS 3 Xrotation Yrotation Zrotation
		JOINT mixamorig:LeftLeg
		{
			OFFSET 0.577358 -80.825211 -3.695000
			CHANNELS 3 Xrotation Yrotation Zrotation
			JOINT mixamorig:LeftFoot
			{
				OFFSET -0.577356 -83.370262 -6.520700
				CHANNELS 3 Xrotation Yrotation Zrotation
				JOINT mixamorig:LeftToeBase
				{
					OFFSET 0.750401 -20.798306 25.135401
					CHANNELS 3 Xrotation Yrotation Zrotation
					JOINT mixamorig:LeftToe_End
					{
						OFFSET -0.000500 0.001200 19.917799
						CHANNELS 3 Xrotation Yrotation Zrotation
						End Site
						{
							OFFSET 0.000000 19.917805 0.000000
						}
					}
				}
			}
		}
	}
	JOINT mixamorig:RightUpLeg
	{
		OFFSET -18.162500 -13.585098 -0.041000
		CHANNELS 3 Xrotation Yrotation Zrotation
		JOINT mixamorig:RightLeg
		{
			OFFSET -0.595024 -80.945297 -3.631900
			CHANNELS 3 Xrotation Yrotation Zrotation
			JOINT mixamorig:RightFoot
			{
				OFFSET 0.595024 -83.218193 -6.561200
				CHANNELS 3 Xrotation Yrotation Zrotation
				JOINT mixamorig:RightToeBase
				{
					OFFSET -0.753601 -20.807106 25.115000
					CHANNELS 3 Xrotation Yrotation Zrotation
					JOINT mixamorig:RightToe_End
					{
						OFFSET 0.000299 0.001700 19.918200
						CHANNELS 3 Xrotation Yrotation Zrotation
						End Site
						{
							OFFSET 0.000000 19.918203 0.000000
						}
					}
				}
			}
		}
	}
}
MOTION
Frames: 5
Frame Time: 0.033333
-1.701968 181.364151 -20.670565 -0.272454 34.716178 -1.022321 18.653919 2.186325 -0.100407 21.912558 2.026278 0.433825 14.394110 1.975522 0.647105 2.753912 -1.519140 0.579507 -21.378183 3.368861 0.454787 -0.000001 0.000002 -0.000002 -0.000001 0.000002 -0.000002 -0.000001 0.000002 -0.000002 20.199581 -16.267721 8.920722 -40.162878 -22.942966 -37.619760 -2.333288 -49.080145 -20.004890 -58.352526 -10.701218 -21.194016 0.912031 9.449010 -26.094251 0.448791 2.159082 -23.482479 0.448792 2.159094 -23.482477 -0.000001 0.000003 -0.000001 37.636289 9.649515 -16.307876 2.365307 24.512055 15.524248 0.430227 19.918235 14.932534 0.000001 0.000000 0.000000 0.996417 10.011217 -25.984886 0.760118 2.026845 -23.455279 0.891942 0.691274 -28.772780 0.000000 0.000001 -0.000000 0.704766 9.226832 -26.061622 0.283825 1.908617 -23.472722 0.284783 1.907970 -23.472766 -0.000000 -0.000000 -0.000000 0.894731 9.102962 -26.050364 0.440269 2.154199 -23.481183 0.440262 2.154198 -23.481183 -0.000001 -0.000001 0.000000 18.194253 13.762432 -7.441903 -29.905075 12.023045 45.734820 -38.141733 59.628248 39.401179 -13.482482 -1.374109 17.859345 -3.686690 -2.833866 36.410878 0.900784 -2.984194 33.466288 0.900292 -2.989968 33.465820 0.000001 0.000002 0.000000 41.576471 -0.925244 20.339275 5.575474 -23.460626 -19.394069 5.289785 -14.831373 -21.629047 0.000001 0.000002 -0.000001 18.008822 0.624421 41.335079 -4.612311 8.516150 36.705727 -6.507623 11.339751 17.243461 -0.000000 -0.000001 -0.000001 -12.638339 -10.850176 34.132494 -8.599675 -9.326293 33.053410 -8.585907 -9.348033 33.047911 0.000000 0.000001 0.000004 -16.935758 -3.890562 38.902073 0.871177 -2.944740 33.020553 1.499426 -3.739299 43.486800 -0.000002 -0.000002 -0.000001 -38.675157 2.459772 21.106680 48.872647 7.595662 -6.006481 -8.492324 -8.429930 -8.844124 -2.134983 -12.875550 -1.520212 0.000000 0.000002 -0.000000 -39.299160 -12.219725 -25.005435 44.404723 0.494968 -2.833167 -6.559756 2.912027 13.767325 -7.590358 9.213510 9.978690 -0.000001 0.000000 -0.000000 
-1.300335 180.915680 -20.264334 -0.277651 35.859849 -1.032765 18.629544 1.819076 -0.364332 21.867780 1.795595 0.359792 14.350506 1.728657 0.552325 2.776359 -1.447043 0.463434 -21.473746 3.076015 0.729752 -0.000003 -0.000001 0.000000 -0.000003 -0.000001 0.000000 -0.000003 -0.000001 0.000000 20.197067 -16.282464 8.903416 -39.973405 -22.494489 -36.736422 -2.377597 -49.521224 -20.062373 -58.183718 -11.220677 -20.393114 0.868102 9.449241 -25.840805 0.439461 2.137460 -23.233237 0.439452 2.137459 -23.233245 -0.000000 0.000002 0.000001 37.496130 9.474728 -16.397949 2.355362 24.272001 15.459080 0.430531 19.677288 14.865685 0.000002 -0.000001 0.000001 0.940471 9.919375 -25.749262 0.699890 2.029260 -23.210530 0.831465 0.696904 -28.529529 0.000000 0.000001 -0.000001 0.696207 9.265063 -25.813279 0.302696 1.927864 -23.224795 0.303496 1.927306 -23.224837 -0.000000 -0.000001 -0.000002 0.854504 9.160616 -25.803953 0.430947 2.132537 -23.231954 0.430945 2.132547 -23.231949 -0.000002 0.000001 0.000000 18.281845 13.722548 -7.785400 -29.927577 12.223119 45.850370 -38.861929 59.963044 40.180907 -13.031250 -0.723417 17.862314 -3.661386 -2.781271 36.088554 0.883747 -2.958302 33.138080 0.883242 -2.964092 33.137605 0.000001 0.000001 -0.000001 41.374578 -0.671821 20.392378 5.519592 -23.141591 -19.355581 5.221853 -14.511101 -21.611600 -0.000004 -0.000001 0.000003 18.053175 0.554250 41.016474 -4.421373 8.736288 35.432812 -6.261249 11.599612 15.967179 0.000001 0.000002 -0.000003 -12.656363 -10.747989 33.817114 -8.651831 -9.246578 32.730188 -8.638189 -9.268416 32.724649 -0.000002 -0.000003 -0.000000 -16.914870 -3.765541 38.600100 0.854385 -2.918699 32.692373 1.478074 -3.716857 43.158094 -0.000002 0.000001 0.000001 -39.317147 2.716020 21.105153 49.300876 6.318238 -5.956236 -8.339448 -8.522673 -8.354405 -2.604396 -12.736927 -1.020007 -0.000000 0.000001 0.000000 -40.261520 -11.537433 -24.573721 43.765752 4.497496 -3.063682 -5.533301 2.767498 13.898657 -8.087140 9.213494 9.978693 -0.000000 -0.000002 0.000000 
-0.980039 180.406418 -19.482256 -0.283061 36.979583 -1.044314 18.559192 1.424586 -0.591123 21.788141 1.541505 0.297809 14.270496 1.457402 0.466855 2.779639 -1.377152 0.303099 -21.612810 2.844495 1.131500 -0.000000 -0.000000 0.000002 -0.000000 -0.000000 0.000002 -0.000000 -0.000000 0.000002 20.131282 -16.371519 8.602885 -39.455168 -22.290309 -35.556445 -2.426235 -50.118118 -20.125675 -58.016904 -12.037025 -19.223786 0.827676 9.450439 -25.601147 0.430704 2.116970 -22.997506 0.430706 2.116977 -22.997503 0.000002 -0.000000 0.000000 37.363331 9.309603 -16.483519 2.345745 24.044942 15.397499 0.430530 19.449389 14.802514 0.000001 0.000001 0.000000 0.887921 9.832314 -25.526580 0.642833 2.031081 -22.979034 0.774152 0.701791 -28.299466 0.000000 -0.000001 0.000002 0.687943 9.301203 -25.578399 0.320297 1.946214 -22.990268 0.320942 1.945790 -22.990309 0.000000 0.000002 -0.000001 0.816211 9.214967 -25.570825 0.422217 2.112013 -22.996217 0.422216 2.112030 -22.996229 -0.000001 0.000002 0.000001 18.398774 13.671383 -8.249885 -29.901103 12.183948 45.834415 -39.409187 60.226518 40.778398 -13.078526 -0.213100 18.264045 -3.635232 -2.727632 35.758943 0.866526 -2.931756 32.802482 0.865969 -2.937535 32.802014 -0.000001 0.000002 -0.000002 41.167866 -0.412934 20.447667 5.462308 -22.815347 -19.316238 5.152326 -14.183621 -21.593565 -0.000005 0.000000 -0.000000 18.098114 0.482213 40.690756 -4.268191 8.905921 34.433890 -6.065628 11.799376 14.965069 -0.000004 -0.000002 0.000001 -12.674182 -10.643427 33.494763 -8.704694 -9.164748 32.399819 -8.691167 -9.186674 32.394255 -0.000002 -0.000002 0.000001 -16.892815 -3.637835 38.291263 0.837393 -2.891989 32.356785 1.456352 -3.693751 42.821987 -0.000002 0.000002 0.000003 -39.807534 2.588622 21.099592 49.917809 5.372173 -6.006659 -8.479695 -8.584204 -8.108710 -2.989461 -12.648038 -0.692091 -0.000000 0.000004 0.000000 -40.818822 -10.485514 -23.638532 42.821403 7.216853 -3.310831 -4.350736 2.889588 13.920891 -8.496950 9.213486 9.978688 -0.000001 0.000002 0.000001 
-0.704693 179.868607 -18.304930 -0.288622 38.075689 -1.051868 18.445897 1.022150 -0.751076 21.675925 1.270646 0.262489 14.156556 1.171047 0.404833 2.772551 -1.318459 0.110405 -21.792367 2.695063 1.486930 0.000001 0.000002 -0.000002 0.000001 0.000002 -0.000002 0.000001 0.000002 -0.000002 20.033804 -16.546215 8.121379 -38.722241 -22.266306 -34.235948 -2.472606 -50.757140 -20.185974 -57.805721 -13.142552 -17.842797 0.790307 9.451974 -25.378246 0.422646 2.097908 -22.778283 0.422638 2.097882 -22.778278 0.000001 -0.000002 -0.000001 37.239680 9.156210 -16.563390 2.336521 23.833790 15.340291 0.430289 19.237448 14.743906 -0.000002 0.000001 0.000002 0.839377 9.751151 -25.319615 0.589685 2.032415 -22.763735 0.720753 0.705916 -28.085506 -0.000002 -0.000001 0.000000 0.680120 9.334766 -25.359922 0.336443 1.963477 -22.772184 0.336945 1.963137 -22.772197 -0.000000 -0.000003 0.000001 0.780383 9.265369 -25.353952 0.414167 2.092914 -22.776996 0.414179 2.092906 -22.777004 -0.000001 0.000000 0.000001 18.522689 13.608792 -8.741749 -29.822051 11.986342 45.754211 -39.761779 60.410264 41.168859 -13.562921 0.221195 18.757064 -3.608963 -2.674515 35.431740 0.849566 -2.905310 32.469340 0.848967 -2.911077 32.468879 0.000003 -0.000001 -0.000000 40.962465 -0.156104 20.503429 5.405264 -22.491528 -19.277077 5.083245 -13.858549 -21.575487 0.000002 0.000001 -0.000000 18.142352 0.410472 40.367490 -4.158559 9.023726 33.730213 -5.927803 11.937785 14.258827 0.000001 0.000001 -0.000002 -12.691277 -10.539503 33.174902 -8.756655 -9.083270 32.072055 -8.743282 -9.105236 32.066440 -0.000002 0.000001 -0.000002 -16.870212 -3.511183 37.984734 0.820661 -2.865344 32.023687 1.434907 -3.670701 42.488319 0.000005 -0.000003 0.000000 -40.175176 2.326861 21.263677 50.646843 4.404910 -6.234958 -8.967749 -8.669418 -7.954383 -3.040299 -12.662367 -0.748778 0.000000 0.000001 0.000000 -40.989522 -9.246212 -22.496644 41.769469 5.843246 -3.532766 -3.070171 5.190392 14.426597 -8.851935 9.213503 9.978684 -0.000000 0.000001 0.000001 
-0.677225 179.342957 -16.249559 -0.294406 39.150668 -1.044782 18.290584 0.647369 -0.822057 21.532427 1.003957 0.264902 14.010613 0.893698 0.378554 2.775254 -1.278278 -0.074362 -21.968055 2.623027 1.630518 0.000002 0.000003 -0.000002 0.000002 0.000003 -0.000002 0.000002 0.000003 -0.000002 19.946314 -16.795307 7.618538 -37.968267 -22.241705 -33.119167 -2.508579 -51.296056 -20.233464 -57.488965 -14.383675 -16.555762 0.756229 9.453237 -25.175128 0.415355 2.080484 -22.578551 0.415358 2.080489 -22.578561 0.000001 -0.000004 0.000001 37.126880 9.016618 -16.636433 2.327974 23.641433 15.288178 0.429856 19.044347 14.690559 0.000002 -0.000000 -0.000001 0.795341 9.677123 -25.131121 0.541188 2.033302 -22.567616 0.672005 0.709356 -27.890593 0.000000 -0.000001 0.000000 0.672889 9.365339 -25.160861 0.351002 1.979310 -22.573447 0.351371 1.979048 -22.573470 -0.000000 0.000001 -0.000000 0.747570 9.311190 -25.156307 0.406904 2.075462 -22.577279 0.406913 2.075479 -22.577277 -0.000002 -0.000002 0.000001 18.618650 13.542276 -9.126132 -29.705592 11.679291 45.626511 -39.946505 60.521295 41.379058 -14.260813 0.595525 18.955325 -3.583380 -2.623513 35.116659 0.833380 -2.879737 32.148594 0.832755 -2.885510 32.148140 -0.000003 -0.000001 -0.000003 40.764427 0.090985 20.558011 5.350160 -22.179738 -19.239338 5.016668 -13.545547 -21.557937 -0.000001 -0.000003 -0.000003 18.184521 0.341154 40.056266 -4.086725 9.099290 33.274247 -5.839356 12.026416 13.801031 -0.000001 0.000003 0.000001 -12.707184 -10.439346 32.867065 -8.806262 -9.004516 31.756562 -8.792988 -9.026564 31.750913 -0.000001 0.000001 -0.000002 -16.847843 -3.389339 37.689558 0.804701 -2.839628 31.702955 1.414397 -3.648401 42.167092 0.000000 0.000003 0.000004 -40.193075 1.776071 21.606409 51.210402 3.461536 -6.531299 -9.551281 -8.688110 -8.153455 -3.123847 -12.687546 -0.841914 -0.000000 -0.000000 0.000000 -41.180327 -8.495411 -21.674791 41.605281 3.051721 -3.445988 -2.374322 7.591105 14.760802 -8.976159 9.213489 9.978687 0.000000 0.000005 0.000002 
